<svg width="262" height="214" viewBox="0 0 262 214" fill="none" xmlns="http://www.w3.org/2000/svg">
<path d="M194.243 0.00060612C172.419 -0.0909773 153.026 10.203 140.907 26.1202L183.459 70.9044C186.859 74.4945 186.42 79.8979 182.472 82.9752C180.699 84.3672 178.506 85.0449 176.331 85.0449C173.68 85.0449 171.03 84.0375 169.165 82.0777L131.128 42.0557C124.128 34.6924 117.145 27.3474 110.145 19.9841C105.063 14.6356 100.475 8.68271 93.3467 5.44066C85.2493 1.75901 75.7263 0.110489 66.7151 0.183756C23.7609 0.476823 -7.80593 43.6309 1.69883 83.9276C6.45121 104.021 22.3534 120.323 35.0203 136.094C51.1784 156.224 82.6721 184.779 105.118 204.268C119.777 216.998 141.803 216.962 156.425 204.195C178.835 184.633 210.237 156.004 226.34 135.819C238.952 120.011 254.818 103.655 259.516 83.5613C268.911 43.228 237.234 0.183773 194.28 0.00060612" fill="#E84627"/>
</svg>
