<svg width="1928" height="185" viewBox="0 0 1928 185" fill="none" xmlns="http://www.w3.org/2000/svg">
<path d="M258.25 5.1744V179.222H191.218V115.483L160.171 179.222H100.195L67.0321 114.778V179.222H6.68685e-05V5.1744H75.2641L130.301 117.835L185.102 5.1744H258.25ZM516.257 179.222H449.225L434.878 152.88H341.974L327.626 179.222H260.594L354.91 5.1744H421.942L516.257 179.222ZM388.543 67.032L365.023 110.074H411.828L388.543 67.032ZM585.666 179.222H518.634V5.1744L585.666 179.222ZM749.131 179.222H682.098H749.131ZM682.098 103.253V5.1744H749.131V179.222H682.098L585.666 81.144V179.222H518.634V5.1744H585.666L682.098 103.253ZM832.581 179.222H765.549V5.1744H832.581V179.222ZM1039.67 5.1744V52.2144H916.187V72.4416H1019.91V118.306H916.187V179.222H849.155V5.1744H1039.67ZM1223.41 114.778H1119.69V132.888L1243.17 132.182V179.222H1052.66V5.1744H1243.17L1243.41 52.2144H1119.69V68.9136H1223.41V114.778ZM1373.52 74.7936C1381.05 74.48 1386.93 74.3232 1391.16 74.3232C1413.9 74.3232 1432.32 77.5376 1446.43 83.9664C1460.7 90.3952 1467.84 103.018 1467.84 121.834C1467.84 146.451 1456.94 163.072 1435.14 171.696C1413.35 180.32 1388.81 184.632 1361.53 184.632C1334.09 184.632 1308.92 180.32 1286.03 171.696C1263.13 163.072 1251.69 146.451 1251.69 121.834H1320.84C1320.84 130.928 1324.83 136.73 1332.83 139.238C1340.83 141.747 1350.39 143.002 1361.53 143.002C1372.03 143.002 1381.05 141.355 1388.57 138.062C1396.1 134.77 1399.86 129.674 1399.86 122.774C1399.86 116.973 1395.86 113.21 1387.87 111.485C1380.03 109.603 1370.85 108.662 1360.35 108.662L1336.83 108.898C1321.15 108.898 1307.19 107.8 1294.96 105.605C1282.89 103.253 1272.62 98.4704 1264.15 91.2576C1255.84 83.888 1251.69 73.1472 1251.69 59.0352C1251.69 41.944 1257.72 29.0864 1269.8 20.4624C1282.03 11.6816 1295.98 6.1152 1311.66 3.76319C1327.34 1.2544 1343.96 -2.91214e-06 1361.53 -2.91214e-06C1388.81 -2.91214e-06 1413.35 4.312 1435.14 12.936C1456.94 21.4032 1467.84 38.024 1467.84 62.7984H1399.86C1399.86 56.2128 1396.1 51.2736 1388.57 47.9808C1381.2 44.688 1372.19 42.8848 1361.53 42.5712C1350.24 42.5712 1340.59 43.8256 1332.6 46.3344C1324.76 48.8432 1320.84 52.8416 1320.84 58.3296C1320.84 64.6016 1324.83 68.9136 1332.83 71.2656C1340.83 73.6176 1349.84 74.872 1359.88 75.0288L1373.52 74.7936ZM1476.12 59.2704V5.1744H1685.68L1476.12 59.2704ZM1685.68 5.1744V59.2704H1614.89V179.222H1547.86V59.2704H1476.12V5.1744H1685.68ZM1811.2 1.41119C1833.31 1.41119 1853.22 5.40959 1870.94 13.4064C1888.66 21.2464 1902.54 32.144 1912.57 46.0992C1922.61 59.8976 1927.62 75.4992 1927.62 92.904C1927.62 110.152 1922.61 125.675 1912.57 139.474C1902.54 153.272 1888.66 164.17 1870.94 172.166C1853.22 180.006 1833.31 183.926 1811.2 183.926C1790.03 183.926 1770.43 180.006 1752.4 172.166C1734.52 164.17 1720.26 153.272 1709.59 139.474C1699.09 125.518 1693.84 109.995 1693.84 92.904C1693.84 75.656 1699.09 60.0544 1709.59 46.0992C1720.26 32.144 1734.52 21.2464 1752.4 13.4064C1770.43 5.40959 1790.03 1.41119 1811.2 1.41119ZM1811.44 134.064C1818.96 134.064 1826.17 132.418 1833.07 129.125C1840.13 125.832 1845.85 121.05 1850.24 114.778C1854.63 108.506 1856.83 101.214 1856.83 92.904C1856.83 84.4368 1854.63 77.1456 1850.24 71.0304C1845.85 64.7584 1840.13 59.976 1833.07 56.6832C1826.17 53.3904 1818.96 51.744 1811.44 51.744C1804.07 51.744 1796.85 53.3904 1789.8 56.6832C1782.9 59.976 1777.17 64.7584 1772.63 71.0304C1768.24 77.1456 1766.04 84.4368 1766.04 92.904C1766.04 101.214 1768.24 108.506 1772.63 114.778C1777.17 121.05 1782.9 125.832 1789.8 129.125C1796.85 132.418 1804.07 134.064 1811.44 134.064Z" fill="#E84627"/>
</svg>
