<svg width="998" height="989" viewBox="0 0 998 989" fill="none" xmlns="http://www.w3.org/2000/svg">
<path d="M54.9997 326.22C50.5763 316.402 48.8947 305.394 49.9731 293.195C51.0516 280.996 54.8535 268.871 61.3606 256.836C67.4656 245.553 74.6855 236.45 82.9839 229.49C91.3006 222.548 100.074 218.042 109.341 216.009C118.609 213.975 127.675 214.47 136.521 217.529L116.141 255.17C110.877 254.382 105.649 255.628 100.476 258.925C95.3036 262.203 91.3371 266.379 88.5954 271.471C86.1644 275.959 84.7204 280.758 84.2634 285.832C83.8064 290.905 84.5741 295.668 86.5665 300.082C88.5405 304.515 91.8307 307.958 96.4003 310.449C100.97 312.94 105.631 313.801 110.365 313.032C115.099 312.263 119.486 310.303 123.489 307.152C127.492 304.002 130.709 300.192 133.14 295.686C136.174 290.1 137.6 284.513 137.454 278.926C137.289 273.358 135.461 268.358 131.952 263.907L152.332 226.266C159.589 232.072 164.889 239.399 168.198 248.228C171.524 257.056 172.548 266.856 171.25 277.626C169.971 288.396 166.297 299.368 160.228 310.559C153.758 322.52 145.679 332.283 135.991 339.848C126.304 347.431 116.141 352.028 105.521 353.658C94.8831 355.289 84.958 353.603 75.7457 348.585C66.3506 343.474 59.4414 336.019 55.018 326.202L54.9997 326.22Z" fill="#E84627"/>
<path d="M150.614 142.833L202.598 198.131L249.372 153.97L270.666 176.609L193.952 249.052L120.674 171.114L150.632 142.833H150.614Z" fill="#E84627"/>
<path d="M412.361 108.764L374.762 125.542L360.139 114.333L308.027 137.595L306.565 155.985L268.967 172.763L278.38 51.3416L315.979 34.5636L412.342 108.764H412.361ZM312.707 77.681L310.257 107.757L336.505 96.0343L312.688 77.681H312.707Z" fill="#E84627"/>
<path d="M578.529 0.402967L578.255 107.482L537.092 107.372L537.183 68.1563L518.028 107.317L481.197 107.226L460.944 67.5336L460.853 107.189L419.69 107.079L419.964 0L466.172 0.1099L499.786 69.5118L533.619 0.293067L578.529 0.402967Z" fill="#E84627"/>
<path d="M759.065 207.18L757.968 161.626L747.111 152.743L725.287 179.522L695.091 154.813L762.666 71.8747L827.097 124.59C834.025 130.268 839.216 136.441 842.671 143.127C846.107 149.812 847.624 156.424 847.185 162.982C846.747 169.539 844.316 175.547 839.874 181.005L839.508 181.445C833.714 188.552 826.878 192.71 818.963 193.955C811.049 195.201 802.805 193.626 794.215 189.211L795.439 236.908L759.083 207.162L759.065 207.18ZM812.548 151.277C812.365 149.446 811.524 147.724 810.025 146.13C808.527 144.537 806.059 142.339 802.641 139.518L799.058 136.587C796.682 134.774 788.896 128.455 775.699 117.666L764.567 131.331L791.29 153.201L791.4 153.292C794.836 156.095 797.468 158.073 799.332 159.227C801.197 160.381 803.006 160.894 804.779 160.784C806.552 160.674 808.307 159.538 810.08 157.377C811.908 155.142 812.731 153.091 812.548 151.259V151.277Z" fill="#E84627"/>
<path d="M886.977 310.449L853.327 256.269L843.895 262.148L884.327 326.422L859.797 341.716L797.998 242.201L888.714 185.621L950.513 285.136L926.075 300.558L885.935 235.937L877.235 241.359L910.885 295.54L886.977 310.449Z" fill="#E84627"/>
<path d="M998 492.389L965.099 496.95L959.158 453.796L886.209 463.888L880.58 423.042L953.529 412.949L947.497 369.228L980.398 364.667L998 492.389ZM947.497 369.228L980.398 364.667L998 492.389L947.497 369.228Z" fill="#E84627"/>
<path d="M954.023 552.413L945.139 602.271L981.678 608.81L974.458 649.399L869.266 630.588L876.486 589.98L914.011 596.684L922.894 546.826L885.369 540.122L892.589 499.514L997.781 518.325L990.543 558.915L954.004 552.376L954.023 552.413Z" fill="#E84627"/>
<path d="M784.691 771.7L806.699 736.843L825.068 738.052L855.575 689.751L846.619 673.632L868.626 638.794L927.957 745.086L905.95 779.924L784.691 771.682V771.7ZM884.82 742.228L870.216 715.834L854.844 740.159L884.82 742.21V742.228Z" fill="#E84627"/>
<path d="M785.332 906.566L762.941 881.985L795.037 852.605L745.375 798.112L775.754 770.308L825.416 824.8L857.933 795.035L880.324 819.616L785.313 906.547L785.332 906.566ZM857.952 795.054L880.343 819.635L785.332 906.566L857.952 795.054Z" fill="#E84627"/>
<path d="M717.756 942.613L719.804 886.82L737.333 877.039L747.916 925.798L717.775 942.631L717.756 942.613Z" fill="#E84627"/>
<path d="M611.21 936.257C606.805 937.686 603.351 938.748 600.847 939.444C587.394 943.181 575.951 944.316 566.501 942.832C557.052 941.349 550.782 935.048 547.693 923.893C543.654 909.295 547.364 897.645 558.843 888.963C570.322 880.263 584.122 873.669 600.28 869.181C616.511 864.657 632.103 863.082 647.073 864.437C662.043 865.774 671.529 873.742 675.569 888.34L634.662 899.715C633.163 894.33 629.854 891.546 624.7 891.381C619.564 891.216 613.696 892.04 607.116 893.872C600.901 895.594 595.838 898.067 591.927 901.254C588.015 904.441 586.626 908.086 587.759 912.17C588.71 915.614 591.689 917.207 596.661 916.969C601.633 916.731 607.244 915.76 613.459 914.02L627.332 910.009C636.617 907.426 645.025 905.815 652.593 905.155C660.16 904.496 667.014 905.65 673.174 908.599C679.334 911.548 683.575 917.189 685.896 925.56C688.711 935.689 687.23 944.334 681.473 951.496C675.715 958.658 668.385 964.245 659.52 968.256C650.655 972.267 641.004 975.729 630.622 978.623C614.482 983.111 599.256 984.613 584.963 983.129C570.669 981.646 561.475 973.568 557.417 958.878L597.63 947.686C598.708 951.588 601.724 953.896 606.677 954.628C611.631 955.361 617.279 954.94 623.64 953.365C630.311 951.515 635.795 949.188 640.072 946.404C644.349 943.62 646.031 940.598 645.135 937.337C644.112 933.619 641.023 931.714 635.923 931.641C630.805 931.568 625.267 932.3 619.308 933.857L611.284 936.239L611.21 936.257Z" fill="#E84627"/>
<path d="M351.329 865.665L391.815 873.083L397.573 890.612L453.688 900.888L465.258 886.527L505.745 893.946L429.56 988.844L389.074 981.426L351.329 865.646V865.665ZM416.071 947.687L435.026 924.241L406.767 919.058L416.071 947.687Z" fill="#E84627"/>
<path d="M158.181 866.507L217.256 777.286L251.547 800.091L229.905 832.768L267.431 810.659L298.12 831.064L293.221 875.391L315.101 842.347L349.391 865.152L290.315 954.372L251.803 928.765L261.892 852.293L195.615 891.418L158.199 866.544L158.181 866.507Z" fill="#E84627"/>
<path d="M73.205 744.555C71.0482 732.814 71.7428 721.97 75.2888 712.061C78.8348 702.133 84.9946 694.147 93.8048 688.084C102.542 682.076 112.138 679.219 122.612 679.494C133.085 679.769 143.394 683.029 153.557 689.257C163.72 695.484 172.658 704.203 180.335 715.413C187.683 726.146 192.49 737.448 194.72 749.317C196.95 761.186 196.401 772.213 193.056 782.415C189.711 792.618 183.716 800.695 175.071 806.648C166.333 812.656 156.609 815.404 145.862 814.891C135.114 814.378 124.622 810.953 114.386 804.615C104.15 798.277 95.3402 789.724 87.974 778.99C80.2971 767.78 75.3802 756.296 73.2233 744.555H73.205ZM144.948 723.362C140.853 720.981 136.467 719.754 131.769 719.717C127.071 719.681 122.612 721.091 118.407 724.003C114.13 726.952 111.169 730.616 109.561 734.993C107.952 739.371 107.532 743.914 108.281 748.603C109.031 753.292 110.731 757.541 113.344 761.351C115.903 765.088 119.23 768.146 123.324 770.546C127.419 772.945 131.806 774.191 136.503 774.301C141.182 774.411 145.679 773 149.956 770.033C154.16 767.139 157.066 763.476 158.693 759.025C160.32 754.574 160.74 750.013 159.991 745.324C159.223 740.635 157.578 736.422 155.019 732.685C152.405 728.876 149.042 725.762 144.966 723.381L144.948 723.362Z" fill="#E84627"/>
<path d="M117.64 577.598L91.849 615.111L95.4315 628.683L128.79 619.836L138.751 657.605L35.4418 684.989L14.1841 604.414C11.8993 595.732 11.3144 587.691 12.4294 580.254C13.5626 572.817 16.213 566.59 20.417 561.534C24.6028 556.479 30.1046 553.054 36.9041 551.259L37.4707 551.112C46.3175 548.768 54.3051 549.427 61.4337 553.072C68.5623 556.717 74.32 562.853 78.6885 571.48L105.649 532.154L117.64 577.616V577.598ZM41.6017 591.391C40.6695 592.984 40.3587 594.871 40.6329 597.032C40.9071 599.212 41.6199 602.435 42.7349 606.722L43.923 611.209C44.7821 614.067 47.3776 623.756 51.7462 640.278L68.7816 635.772L59.9532 602.344L59.9166 602.197C58.7833 597.911 57.7963 594.743 56.9738 592.728C56.133 590.695 54.9814 589.211 53.4826 588.258C51.9838 587.306 49.9001 587.196 47.1949 587.91C44.3983 588.643 42.5521 589.815 41.6199 591.409L41.6017 591.391Z" fill="#E84627"/>
<path d="M74.7221 418.554L70.0976 482.205L81.1926 483.011L86.2557 407.216L115.062 409.323L106.581 526.22L0 518.435L8.48117 401.538L37.2879 403.498L31.7678 479.402L41.9855 480.153L46.6099 416.503L74.6855 418.554H74.7221Z" fill="#E84627"/>
<path d="M710.828 36.1205C700.008 31.4314 688.218 32.4022 678.823 37.7324L690.448 68.9989C691.38 71.5083 690.009 74.091 687.395 74.787C686.226 75.0984 684.983 74.9702 683.904 74.5123C682.588 73.9445 681.492 72.8821 680.98 71.5083L670.579 43.5571C668.678 38.4101 666.759 33.2814 664.84 28.1344C663.451 24.3978 662.445 20.4781 659.576 17.3459C656.341 13.7925 651.972 10.9534 647.476 9.06679C626.09 0.0732995 601.286 14.7633 597.466 36.7799C595.565 47.7516 600.006 59.2362 602.949 69.7499C606.696 83.1761 616.274 104.039 623.293 118.509C627.863 127.942 638.812 132.613 648.755 129.389C664.017 124.444 685.677 116.934 697.942 110.34C707.557 105.174 718.889 100.449 725.469 91.4735C738.685 73.4682 732.086 45.3521 710.81 36.1205" fill="#E84627"/>
</svg>
