<svg width="1033" height="123" viewBox="0 0 1033 123" fill="none" xmlns="http://www.w3.org/2000/svg">
<path d="M10.0401 29.4103C16.7401 20.2703 25.9201 13.1003 37.5501 7.91033C49.1801 2.72033 62.0801 0.110327 76.2401 0.0903272C88.9601 0.0703272 100.45 2.08033 110.71 6.12033C120.97 10.1603 129.39 15.8403 135.97 23.1603C142.54 30.4903 146.92 39.0703 149.09 48.9103L109.7 48.9703C108.16 44.8703 105.56 41.3103 101.91 38.2903C98.2601 35.2703 94.1801 32.9903 89.6701 31.4603C85.1501 29.9303 80.7401 29.1603 76.4301 29.1703C70.3801 29.1703 64.5101 30.4203 58.8201 32.8903C53.1301 35.3603 48.5201 38.9303 44.9901 43.6003C41.4601 48.2703 39.7001 53.7903 39.7101 60.1503C39.7101 66.5103 41.4701 72.0203 44.9601 76.6803C48.4501 81.3403 53.0001 84.8803 58.5901 87.2803C64.1801 89.6803 70.1601 90.8803 76.5201 90.8703C83.6001 90.8603 90.1301 89.1603 96.1301 85.7603C102.13 82.3703 106.55 77.5403 109.42 71.2803L148.96 71.2203C146.72 80.9703 142.32 89.5103 135.76 96.8603C129.2 104.2 120.85 109.88 110.7 113.9C100.55 117.91 89.1101 119.93 76.4001 119.95C62.3501 119.97 49.5001 117.37 37.8501 112.16C26.2001 106.95 16.9801 99.7803 10.2001 90.6603C3.42009 81.5403 0.020089 71.3903 8.90213e-05 60.2103C-0.019911 48.8203 3.33009 38.5603 10.0301 29.4203" fill="#E64526"/>
<path d="M196.56 2.83032L196.68 87.4503L268.38 87.3503L268.42 116.58L158.72 116.74L158.56 2.88032L196.56 2.83032Z" fill="#E64526"/>
<path d="M431.82 116.35L393.51 116.4L382.87 96.8803L318.4 96.9703L307.81 116.53L269.5 116.59L331.04 2.6503L369.97 2.5903L431.83 116.36L431.82 116.35ZM350.62 37.3803L332.2 71.2603L368.97 71.2103L350.61 37.3903L350.62 37.3803Z" fill="#E64526"/>
<path d="M597.67 2.26031L597.83 116.12L559.98 116.17L559.91 64.7803L534.9 116.2L499.98 116.25L473.13 64.2903L473.21 116.29L435.2 116.35L435.04 2.49031L478.43 2.43031L517.31 80.6903L555.36 2.32031L597.67 2.26031Z" fill="#E64526"/>
<path d="M857.24 115.59L825.65 78.8603L802.11 78.8903L802.16 115.66L765.85 115.71L765.69 1.8503L851.7 1.7303C861.24 1.7203 869.68 3.3003 877.02 6.4603C884.36 9.6303 890.06 14.0603 894.12 19.7403C898.18 25.4303 900.22 32.0203 900.23 39.5003V40.1203C900.25 49.8703 897.41 57.9203 891.73 64.2903C886.05 70.6603 878.18 74.9303 868.13 77.0903L901.26 115.51L857.25 115.57L857.24 115.59ZM861.97 31.7303C860.27 29.8903 858.09 28.7603 855.43 28.3503C852.76 27.9403 848.86 27.7403 843.73 27.7503H838.19C830.6 27.9803 818.55 28.0903 802.03 28.1203L802.07 52.5803L843.46 52.5203H843.77C848.9 52.5203 852.79 52.3003 855.46 51.8903C858.12 51.4803 860.3 50.4203 861.99 48.7303C863.68 47.0403 864.52 44.2903 864.52 40.5003C864.52 36.5003 863.66 33.5803 861.97 31.7303Z" fill="#E64526"/>
<path d="M1019.65 71.2003L948.57 71.3003L948.59 88.6903L1032.6 87.9603L1032.64 115.5L910.63 115.67L910.47 1.81032L1032.48 1.64032L1032.67 29.1803L948.51 29.3003L948.53 44.3803L1019.61 44.2803L1019.65 71.2003Z" fill="#E64526"/>
<path d="M719.5 0.000315859C706.97 -0.0496841 695.85 5.84031 688.9 14.9603L713.32 40.6003C715.27 42.6503 715.02 45.7503 712.75 47.5203C711.73 48.3203 710.47 48.7103 709.22 48.7103C707.69 48.7103 706.18 48.1403 705.1 47.0103L683.27 24.0903C679.26 19.8803 675.25 15.6603 671.23 11.4503C668.31 8.39032 665.68 4.98032 661.59 3.12032C656.94 1.01032 651.48 0.0703165 646.31 0.110316C621.66 0.280316 603.55 24.9903 609.01 48.0703C611.73 59.5703 620.86 68.9103 628.13 77.9403C637.4 89.4703 655.47 105.82 668.36 116.98C676.77 124.27 689.41 124.25 697.8 116.94C710.66 105.74 728.68 89.3403 737.91 77.7903C745.15 68.7403 754.25 59.3703 756.94 47.8603C762.34 24.7703 744.15 0.110318 719.5 0.010318" fill="#E64526"/>
</svg>
